<?xml version="1.0" encoding="iso-8859-1"?>
<!-- Generator: Adobe Illustrator 19.0.0, SVG Export Plug-In . SVG Version: 6.00 Build 0)  -->
<svg version="1.1" id="Layer_1" xmlns="http://www.w3.org/2000/svg" xmlns:xlink="http://www.w3.org/1999/xlink" x="0px" y="0px"
	 viewBox="0 0 512.084 512.084" style="enable-background:new 0 0 512.084 512.084;" xml:space="preserve">
<g transform="translate(0 -1)">
	<path style="fill:#DBB38D;" d="M310.263,468.602c-17.064,11.573-32.106,26.827-54.219,26.827
		c-22.113,0-37.155-15.254-54.219-26.827c-8.316-5.641-16.764-11.149-24.991-16.949v61.431h158.897v-61.758
		C327.362,457.259,318.737,462.855,310.263,468.602"/>
	<path style="fill:#59474E;" d="M310.698,116.645c-50.635,21.274-98.551,16.852-98.551,16.852
		c-80.552-15.078-79.448-88.276-79.448-88.276c0-48.181,79.448-44.138,79.448-44.138s167.724,0.371,167.724,150.069l-11.326-16.993
		C355.931,115.251,331.664,107.835,310.698,116.645"/>
	<path style="fill:#FDD7AD;" d="M379.69,146.051c0.044,1.713,0.185,3.346,0.185,5.102l-11.335-16.993
		c-12.606-18.909-36.882-26.324-57.838-17.514c-50.644,21.274-98.551,16.852-98.551,16.852
		c-23.773-4.449-40.298-14.009-51.977-25.203c-29.096,28.328-54.201,78.451-54.201,167.442c0,55.428,4.317,116.401,46.133,156.089
		c14.998,14.239,32.662,25.212,49.726,36.776c17.055,11.573,32.097,26.827,54.21,26.827c22.113,0,37.155-15.254,54.219-26.827
		c17.064-11.564,34.719-22.537,49.726-36.776c41.807-39.689,46.124-100.661,46.124-156.089
		C406.111,217.422,395.315,175.818,379.69,146.051"/>
</g>
<g>
</g>
<g>
</g>
<g>
</g>
<g>
</g>
<g>
</g>
<g>
</g>
<g>
</g>
<g>
</g>
<g>
</g>
<g>
</g>
<g>
</g>
<g>
</g>
<g>
</g>
<g>
</g>
<g>
</g>
</svg>
