<?xml version="1.0" encoding="iso-8859-1"?>
<!-- Generator: Adobe Illustrator 19.0.0, SVG Export Plug-In . SVG Version: 6.00 Build 0)  -->
<svg version="1.1" id="Layer_1" xmlns="http://www.w3.org/2000/svg" xmlns:xlink="http://www.w3.org/1999/xlink" x="0px" y="0px"
	 viewBox="0 0 503.607 503.607" style="enable-background:new 0 0 503.607 503.607;" xml:space="preserve">
<g>
	<g>
		<path d="M477.553,180.459h-59.896c-11.105-68.784-57-176.262-165.854-176.262c-108.854,0-154.75,107.478-165.854,176.262H26.053
			C11.692,180.459,0,192.143,0,206.504V339.07c0,11.088,7,20.514,16.787,24.265v110.03c0,14.361,11.692,26.045,26.053,26.045
			h417.926c14.361,0,26.053-11.684,26.053-26.045v-110.03c9.787-3.752,16.787-13.178,16.787-24.265V206.504
			C503.607,192.143,491.914,180.459,477.553,180.459z M251.803,54.557c41.43,0,73.56,23.166,95.484,68.86
			c10.081,21.026,15.771,42.32,18.86,57.042H137.451C145.727,141.186,172.972,54.557,251.803,54.557z M310.557,339.934v16.787
			v16.787H268.59h-33.574h-41.967v-16.787v-16.787H310.557z M470.033,473.365c0,5.103-4.155,9.258-9.266,9.258H42.84
			c-5.112,0-9.266-4.155-9.266-9.258v-108.25h142.689v10.693c0,7.991,6.497,14.487,14.495,14.487h35.865v25.18
			c0,1.654,0.495,3.282,1.41,4.658l16.787,25.18c1.561,2.333,4.18,3.735,6.983,3.735c2.803,0,5.422-1.402,6.983-3.735l16.787-25.18
			c0.915-1.377,1.41-3.005,1.41-4.658v-25.18h35.865c7.999,0,14.495-6.497,14.495-14.487v-10.693h142.689V473.365z"/>
	</g>
</g>
<g>
</g>
<g>
</g>
<g>
</g>
<g>
</g>
<g>
</g>
<g>
</g>
<g>
</g>
<g>
</g>
<g>
</g>
<g>
</g>
<g>
</g>
<g>
</g>
<g>
</g>
<g>
</g>
<g>
</g>
</svg>
